<svg width="34" height="40" viewBox="0 0 34 40" fill="none" xmlns="http://www.w3.org/2000/svg">
<g clip-path="url(#clip0_355_173)">
<path d="M20.9066 4.2122L17.6291 3.33398L14.8671 13.642L12.3735 4.33585L9.09588 5.21407L11.7901 15.2687L5.0795 8.55814L2.68017 10.9575L10.0408 18.3182L0.87431 15.862L-0.00390625 19.1395L10.0116 21.8232C9.89696 21.3286 9.8363 20.8132 9.8363 20.2837C9.8363 16.5357 12.8746 13.4974 16.6226 13.4974C20.3707 13.4974 23.409 16.5357 23.409 20.2837C23.409 20.8098 23.3491 21.322 23.2358 21.8137L32.3381 24.2526L33.2163 20.9751L23.1609 18.2807L32.328 15.8244L31.4498 12.5469L21.3948 15.2411L28.1053 8.53059L25.706 6.13126L18.4475 13.3898L20.9066 4.2122Z" fill="#EE6731"/>
<path d="M23.2262 21.8518C22.9452 23.0398 22.352 24.1071 21.538 24.9622L28.1322 31.5564L30.5315 29.1571L23.2262 21.8518Z" fill="#EE6731"/>
<path d="M21.4714 25.0311C20.6476 25.8725 19.6065 26.5004 18.439 26.824L20.8385 35.779L24.116 34.9008L21.4714 25.0311Z" fill="#EE6731"/>
<path d="M18.3166 26.8568C17.7749 26.996 17.2072 27.07 16.6221 27.07C15.9952 27.07 15.3882 26.985 14.812 26.826L12.4103 35.7892L15.6878 36.6673L18.3166 26.8568Z" fill="#EE6731"/>
<path d="M14.6961 26.7929C13.5464 26.4533 12.5238 25.8173 11.7168 24.9735L5.10643 31.5839L7.50576 33.9833L14.6961 26.7929Z" fill="#EE6731"/>
<path d="M11.6624 24.9151C10.8692 24.0659 10.2914 23.0129 10.0164 21.8432L0.884462 24.2901L1.76267 27.5677L11.6624 24.9151Z" fill="#EE6731"/>
</g>
<defs>
<clipPath id="clip0_355_173">
<rect width="33.3333" height="40" fill="white"/>
</clipPath>
</defs>
</svg>
