<svg width="181" height="48" viewBox="0 0 181 48" fill="none" xmlns="http://www.w3.org/2000/svg">
<path d="M11.2788 6.1817L15.9689 23.6853V4.44148C16.3408 4.35469 16.7167 4.27826 17.0962 4.21251V23.6871L22.3714 4C22.7515 4.03442 23.1286 4.07945 23.5023 4.13479L18.1847 23.9805L28.7548 5.67256C29.0991 5.82748 29.4383 5.99183 29.772 6.1653L19.1625 24.5416L34.3089 9.3951C34.582 9.65334 34.8478 9.91917 35.106 10.1923L19.9574 25.341L38.3358 14.7302C38.5092 15.0639 38.6735 15.4031 38.8284 15.7475L20.525 26.315L40.3653 20.9988C40.4206 21.3725 40.4656 21.7496 40.5 22.1297L20.8131 27.4048L40.2872 27.4048C40.2214 27.7844 40.145 28.1602 40.0582 28.5321L20.8101 28.5321L38.3171 33.2231C38.1373 33.5674 37.9478 33.9058 37.749 34.238L20.5233 29.6224L34.9107 37.929C34.6384 38.2091 34.3579 38.4812 34.0696 38.7451L19.9609 30.5994L30.6368 41.2752C30.2991 41.4725 29.9551 41.6602 29.6052 41.838L19.1626 31.3954L26.0047 43.2462C25.6301 43.3521 25.251 43.4474 24.8679 43.5317L18.1854 31.9573L21.4073 43.9816C21.1201 43.9938 20.8314 44 20.5412 44C20.4421 44 20.3432 43.9993 20.2445 43.9978L17.0962 32.2481V43.705C16.7167 43.6393 16.3408 43.5629 15.9689 43.4761V32.25L13.193 42.61C12.8389 42.4704 12.4897 42.321 12.1459 42.1622L14.8796 31.9598L9.74786 40.8482C9.43015 40.6448 9.11857 40.4326 8.81345 40.2121L13.9048 31.3935L6.7747 38.5237C6.5016 38.2654 6.23577 37.9996 5.97753 37.7266L13.1054 30.5987L4.28941 35.6886C4.06882 35.3835 3.85661 35.0719 3.65311 34.7542L12.5457 29.6201L2.33833 32.3551C2.17945 32.0113 2.03003 31.6621 1.8904 31.3081L12.2503 28.5321L1.02418 28.5321C0.93737 28.1602 0.86092 27.7844 0.795146 27.4048L12.2473 27.4048L0.502184 24.2577C0.50073 24.1582 0.5 24.0586 0.5 23.9588C0.5 23.6694 0.506135 23.3814 0.518282 23.0949L12.5441 26.3173L0.96789 19.6337C1.05218 19.2505 1.14744 18.8714 1.25332 18.4968L13.109 25.3417L2.66202 14.8947C2.83976 14.5448 3.02746 14.2008 3.22475 13.8632L13.905 24.5434L5.75604 10.429C6.01991 10.1408 6.29209 9.86037 6.57221 9.58804L14.8803 23.978L10.264 6.74972C10.5961 6.55092 10.9346 6.36146 11.2788 6.1817Z" fill="white"/>
<path d="M64.621 13.7747V17.8517H55.063V21.3347H63.5V25.1957H55.063V32.9987H50.5V16.2747C50.5 14.894 51.6193 13.7747 53 13.7747H64.621Z" fill="white"/>
<path d="M77.6327 31.3247C76.3007 32.6567 74.5277 33.3227 72.3137 33.3227C70.0997 33.3227 68.3267 32.6567 66.9947 31.3247C65.6627 29.9927 64.9967 28.2287 64.9967 26.0327C64.9967 23.8187 65.6627 22.0457 66.9947 20.7137C68.3087 19.3997 70.0817 18.7427 72.3137 18.7427C74.5457 18.7427 76.3187 19.3997 77.6327 20.7137C78.9467 22.0277 79.6037 23.8007 79.6037 26.0327C79.6037 28.2467 78.9467 30.0107 77.6327 31.3247ZM72.3137 29.9477C73.2857 29.9477 74.0327 29.6147 74.5547 28.9487C75.0767 28.2827 75.3377 27.3107 75.3377 26.0327C75.3377 24.7547 75.0767 23.7827 74.5547 23.1167C74.0327 22.4507 73.2857 22.1177 72.3137 22.1177C71.3237 22.1177 70.5677 22.4507 70.0457 23.1167C69.5237 23.7827 69.2627 24.7547 69.2627 26.0327C69.2627 27.3107 69.5237 28.2827 70.0457 28.9487C70.5677 29.6147 71.3237 29.9477 72.3137 29.9477Z" fill="white"/>
<path d="M87.5111 33.3227C85.3331 33.3227 83.5961 32.6567 82.3001 31.3247C81.0041 29.9927 80.3561 28.2287 80.3561 26.0327C80.3561 23.8007 81.0041 22.0277 82.3001 20.7137C83.5961 19.3997 85.3331 18.7427 87.5111 18.7427C89.4191 18.7427 90.9761 19.2467 92.1821 20.2547C93.4061 21.2447 94.1171 22.5947 94.3151 24.3047H90.1301C89.8961 22.8827 89.0231 22.1717 87.5111 22.1717C85.5851 22.1717 84.6221 23.4587 84.6221 26.0327C84.6221 28.5887 85.5851 29.8667 87.5111 29.8667C89.1311 29.8667 90.0311 29.0837 90.2111 27.5177H94.3961C94.2701 29.2817 93.5771 30.6947 92.3171 31.7567C91.0571 32.8007 89.4551 33.3227 87.5111 33.3227Z" fill="white"/>
<path d="M104.913 20.6867V19.0667H109.152V32.9987H105.048V31.1897C104.184 32.6117 102.852 33.3227 101.052 33.3227C99.1262 33.3227 97.6322 32.6747 96.5702 31.3787C95.5082 30.0827 94.9772 28.3007 94.9772 26.0327C94.9772 23.7647 95.5082 21.9827 96.5702 20.6867C97.6322 19.3907 99.1262 18.7427 101.052 18.7427C102.744 18.7427 104.031 19.3907 104.913 20.6867ZM102.105 29.9477C104.031 29.9477 104.994 28.6427 104.994 26.0327C104.994 23.4227 104.031 22.1177 102.105 22.1177C100.197 22.1177 99.2432 23.4587 99.2432 26.1407C99.2432 28.6787 100.197 29.9477 102.105 29.9477Z" fill="white"/>
<path d="M115.706 33.1067C114.068 33.1067 112.88 32.7917 112.142 32.1617C111.404 31.5317 111.035 30.5147 111.035 29.1107V13.7747H115.247V28.6517C115.247 29.1197 115.346 29.4437 115.544 29.6237C115.742 29.7857 116.093 29.8667 116.597 29.8667H117.542V32.9987C117.038 33.0707 116.426 33.1067 115.706 33.1067Z" fill="white"/>
<path d="M118.728 16.2747C118.728 14.894 119.847 13.7747 121.228 13.7747H127.476C129.69 13.7747 131.427 14.3597 132.687 15.5297C133.947 16.6817 134.577 18.2567 134.577 20.2547C134.577 22.2527 133.947 23.8367 132.687 25.0067C131.427 26.1587 129.69 26.7347 127.476 26.7347H123.291V32.9987H118.728V16.2747ZM123.291 22.8737H127.179C128.079 22.8737 128.772 22.6487 129.258 22.1987C129.762 21.7487 130.014 21.1007 130.014 20.2547C130.014 19.4087 129.762 18.7607 129.258 18.3107C128.754 17.8607 128.061 17.6357 127.179 17.6357H123.291V22.8737Z" fill="white"/>
<path d="M147.284 31.3247C145.952 32.6567 144.179 33.3227 141.965 33.3227C139.751 33.3227 137.978 32.6567 136.646 31.3247C135.314 29.9927 134.648 28.2287 134.648 26.0327C134.648 23.8187 135.314 22.0457 136.646 20.7137C137.96 19.3997 139.733 18.7427 141.965 18.7427C144.197 18.7427 145.97 19.3997 147.284 20.7137C148.598 22.0277 149.255 23.8007 149.255 26.0327C149.255 28.2467 148.598 30.0107 147.284 31.3247ZM141.965 29.9477C142.937 29.9477 143.684 29.6147 144.206 28.9487C144.728 28.2827 144.989 27.3107 144.989 26.0327C144.989 24.7547 144.728 23.7827 144.206 23.1167C143.684 22.4507 142.937 22.1177 141.965 22.1177C140.975 22.1177 140.219 22.4507 139.697 23.1167C139.175 23.7827 138.914 24.7547 138.914 26.0327C138.914 27.3107 139.175 28.2827 139.697 28.9487C140.219 29.6147 140.975 29.9477 141.965 29.9477Z" fill="white"/>
<path d="M152.681 17.6087C152.069 17.6087 151.547 17.4017 151.115 16.9877C150.701 16.5557 150.494 16.0427 150.494 15.4487C150.494 14.8367 150.701 14.3237 151.115 13.9097C151.547 13.4777 152.069 13.2617 152.681 13.2617C153.275 13.2617 153.779 13.4777 154.193 13.9097C154.625 14.3237 154.841 14.8367 154.841 15.4487C154.841 16.0427 154.625 16.5557 154.193 16.9877C153.779 17.4017 153.275 17.6087 152.681 17.6087ZM154.787 32.9987H150.575V19.0667H154.787V32.9987Z" fill="white"/>
<path d="M165.184 18.7427C166.66 18.7427 167.83 19.1927 168.694 20.0927C169.576 20.9747 170.017 22.2347 170.017 23.8727V32.9987H165.805V24.7097C165.805 23.1257 165.058 22.3337 163.564 22.3337C162.808 22.3337 162.178 22.5857 161.674 23.0897C161.17 23.5937 160.918 24.3047 160.918 25.2227V32.9987H156.706V19.0667H160.81V21.0377C161.89 19.5077 163.348 18.7427 165.184 18.7427Z" fill="white"/>
<path d="M179.531 19.0667V22.1447H176.858V28.6517C176.858 29.1197 176.975 29.4437 177.209 29.6237C177.443 29.7857 177.857 29.8667 178.451 29.8667H179.531V32.9987C179.027 33.0707 178.379 33.1067 177.587 33.1067C175.841 33.1067 174.581 32.8007 173.807 32.1887C173.033 31.5587 172.646 30.5327 172.646 29.1107V22.1447H170.567V19.0667H172.646V14.9357H176.858V19.0667H179.531Z" fill="white"/>
</svg>
