<svg width="140" height="48" viewBox="0 0 140 48" fill="none" xmlns="http://www.w3.org/2000/svg">
<g clip-path="url(#clip0_355_172)">
<path d="M20.9066 8.2122L17.6291 7.33398L14.8671 17.642L12.3735 8.33585L9.09588 9.21407L11.7901 19.2687L5.0795 12.5581L2.68017 14.9575L10.0408 22.3182L0.87431 19.862L-0.00390625 23.1395L10.0116 25.8232C9.89696 25.3286 9.8363 24.8132 9.8363 24.2837C9.8363 20.5357 12.8746 17.4974 16.6226 17.4974C20.3707 17.4974 23.409 20.5357 23.409 24.2837C23.409 24.8098 23.3491 25.322 23.2358 25.8137L32.3381 28.2526L33.2163 24.9751L23.1609 22.2807L32.328 19.8244L31.4498 16.5469L21.3948 19.2411L28.1053 12.5306L25.706 10.1313L18.4475 17.3898L20.9066 8.2122Z" fill="#EE6731"/>
<path d="M23.2262 25.8518C22.9452 27.0398 22.352 28.1071 21.538 28.9622L28.1322 35.5564L30.5315 33.1571L23.2262 25.8518Z" fill="#EE6731"/>
<path d="M21.4714 29.0311C20.6476 29.8725 19.6065 30.5004 18.439 30.824L20.8385 39.779L24.116 38.9008L21.4714 29.0311Z" fill="#EE6731"/>
<path d="M18.3166 30.8568C17.7749 30.996 17.2072 31.07 16.6221 31.07C15.9952 31.07 15.3882 30.985 14.812 30.826L12.4103 39.7892L15.6878 40.6673L18.3166 30.8568Z" fill="#EE6731"/>
<path d="M14.6961 30.7929C13.5464 30.4533 12.5238 29.8173 11.7168 28.9735L5.10643 35.5839L7.50576 37.9833L14.6961 30.7929Z" fill="#EE6731"/>
<path d="M11.6624 28.9151C10.8692 28.0659 10.2914 27.0129 10.0164 25.8432L0.884462 28.2901L1.76267 31.5677L11.6624 28.9151Z" fill="#EE6731"/>
</g>
<path d="M41.3333 31.4989V16.0639H44.4158L50.6258 24.3889C50.7158 24.4939 50.8283 24.6439 50.9633 24.8389C51.0983 25.0189 51.2258 25.1989 51.3458 25.3789C51.4658 25.5589 51.5483 25.7014 51.5933 25.8064H51.7058C51.7058 25.5514 51.7058 25.3039 51.7058 25.0639C51.7058 24.8089 51.7058 24.5839 51.7058 24.3889V16.0639H54.8783V31.4989H51.7958L45.4508 22.9714C45.3008 22.7614 45.1433 22.5289 44.9783 22.2739C44.8133 22.0189 44.6933 21.8239 44.6183 21.6889H44.5058C44.5058 21.9139 44.5058 22.1389 44.5058 22.3639C44.5058 22.5739 44.5058 22.7764 44.5058 22.9714V31.4989H41.3333Z" fill="#0F0F0F"/>
<path d="M57.1262 17.9314V15.2314H60.2537V17.9314H57.1262ZM57.1262 31.4989V19.6639H60.2537V31.4989H57.1262Z" fill="#0F0F0F"/>
<path d="M67.6023 31.7689C66.2973 31.7689 65.2023 31.5514 64.3173 31.1164C63.4323 30.6664 62.7648 29.9839 62.3148 29.0689C61.8648 28.1539 61.6398 26.9914 61.6398 25.5814C61.6398 24.1564 61.8648 22.9939 62.3148 22.0939C62.7648 21.1789 63.4248 20.5039 64.2948 20.0689C65.1798 19.6189 66.2598 19.3939 67.5348 19.3939C68.7348 19.3939 69.7473 19.6114 70.5723 20.0464C71.3973 20.4664 72.0198 21.1264 72.4398 22.0264C72.8598 22.9114 73.0698 24.0589 73.0698 25.4689V26.2789H64.8123C64.8423 26.9689 64.9473 27.5539 65.1273 28.0339C65.3223 28.5139 65.6148 28.8739 66.0048 29.1139C66.4098 29.3389 66.9423 29.4514 67.6023 29.4514C67.9623 29.4514 68.2848 29.4064 68.5698 29.3164C68.8698 29.2264 69.1248 29.0914 69.3348 28.9114C69.5448 28.7314 69.7098 28.5064 69.8298 28.2364C69.9498 27.9664 70.0098 27.6589 70.0098 27.3139H73.0698C73.0698 28.0639 72.9348 28.7164 72.6648 29.2714C72.3948 29.8264 72.0198 30.2914 71.5398 30.6664C71.0598 31.0264 70.4823 31.3039 69.8073 31.4989C69.1473 31.6789 68.4123 31.7689 67.6023 31.7689ZM64.8573 24.2989H69.8523C69.8523 23.8489 69.7923 23.4589 69.6723 23.1289C69.5673 22.7989 69.4173 22.5289 69.2223 22.3189C69.0273 22.1089 68.7873 21.9589 68.5023 21.8689C68.2323 21.7639 67.9248 21.7114 67.5798 21.7114C67.0098 21.7114 66.5298 21.8089 66.1398 22.0039C65.7648 22.1839 65.4723 22.4689 65.2623 22.8589C65.0673 23.2339 64.9323 23.7139 64.8573 24.2989Z" fill="#0F0F0F"/>
<path d="M77.9969 31.7689C77.2469 31.7689 76.6394 31.6339 76.1744 31.3639C75.7094 31.0939 75.3719 30.7339 75.1619 30.2839C74.9519 29.8189 74.8469 29.3089 74.8469 28.7539V22.0714H73.3844V19.6639H74.9594L75.5444 16.2889H77.9744V19.6639H80.1344V22.0714H77.9744V28.2364C77.9744 28.5964 78.0569 28.8739 78.2219 29.0689C78.3869 29.2489 78.6569 29.3389 79.0319 29.3389H80.1344V31.4089C79.9544 31.4689 79.7444 31.5214 79.5044 31.5664C79.2644 31.6264 79.0094 31.6714 78.7394 31.7014C78.4694 31.7464 78.2219 31.7689 77.9969 31.7689Z" fill="#0F0F0F"/>
<path d="M80.3323 31.4989V30.1714L86.1148 22.0714H80.6923V19.6639H90.6373V20.9464L84.8323 29.0689H90.8623V31.4989H80.3323Z" fill="#0F0F0F"/>
<path d="M96.8148 31.7689C95.9898 31.7689 95.2473 31.6789 94.5873 31.4989C93.9273 31.3189 93.3648 31.0714 92.8998 30.7564C92.4348 30.4264 92.0748 30.0364 91.8198 29.5864C91.5798 29.1364 91.4598 28.6264 91.4598 28.0564C91.4598 27.9964 91.4598 27.9364 91.4598 27.8764C91.4598 27.8164 91.4673 27.7714 91.4823 27.7414H94.4973C94.4973 27.7714 94.4973 27.8014 94.4973 27.8314C94.4973 27.8614 94.4973 27.8914 94.4973 27.9214C94.5123 28.2964 94.6323 28.6039 94.8573 28.8439C95.0823 29.0689 95.3748 29.2339 95.7348 29.3389C96.1098 29.4439 96.4998 29.4964 96.9048 29.4964C97.2648 29.4964 97.6098 29.4664 97.9398 29.4064C98.2848 29.3314 98.5698 29.2039 98.7948 29.0239C99.0348 28.8439 99.1548 28.6114 99.1548 28.3264C99.1548 27.9664 99.0048 27.6889 98.7048 27.4939C98.4198 27.2989 98.0373 27.1414 97.5573 27.0214C97.0923 26.9014 96.5823 26.7664 96.0273 26.6164C95.5173 26.4964 95.0073 26.3614 94.4973 26.2114C93.9873 26.0464 93.5223 25.8364 93.1023 25.5814C92.6973 25.3264 92.3673 24.9964 92.1123 24.5914C91.8573 24.1714 91.7298 23.6464 91.7298 23.0164C91.7298 22.4014 91.8648 21.8689 92.1348 21.4189C92.4048 20.9539 92.7723 20.5714 93.2373 20.2714C93.7173 19.9714 94.2723 19.7539 94.9023 19.6189C95.5473 19.4689 96.2373 19.3939 96.9723 19.3939C97.6623 19.3939 98.3073 19.4689 98.9073 19.6189C99.5073 19.7539 100.032 19.9639 100.482 20.2489C100.932 20.5189 101.285 20.8639 101.54 21.2839C101.795 21.6889 101.922 22.1464 101.922 22.6564C101.922 22.7614 101.922 22.8589 101.922 22.9489C101.922 23.0389 101.915 23.0989 101.9 23.1289H98.9073V22.9489C98.9073 22.6789 98.8248 22.4539 98.6598 22.2739C98.4948 22.0789 98.2548 21.9289 97.9398 21.8239C97.6398 21.7189 97.2723 21.6664 96.8373 21.6664C96.5373 21.6664 96.2598 21.6889 96.0048 21.7339C95.7648 21.7789 95.5548 21.8464 95.3748 21.9364C95.1948 22.0264 95.0523 22.1389 94.9473 22.2739C94.8573 22.3939 94.8123 22.5439 94.8123 22.7239C94.8123 22.9789 94.9173 23.1889 95.1273 23.3539C95.3523 23.5039 95.6448 23.6314 96.0048 23.7364C96.3648 23.8414 96.7623 23.9539 97.1973 24.0739C97.7373 24.2239 98.2998 24.3739 98.8848 24.5239C99.4848 24.6589 100.04 24.8464 100.55 25.0864C101.06 25.3264 101.472 25.6714 101.787 26.1214C102.102 26.5564 102.26 27.1489 102.26 27.8989C102.26 28.6189 102.117 29.2264 101.832 29.7214C101.562 30.2164 101.18 30.6139 100.685 30.9139C100.19 31.2139 99.6123 31.4314 98.9523 31.5664C98.2923 31.7014 97.5798 31.7689 96.8148 31.7689Z" fill="#0F0F0F"/>
<path d="M108.822 31.7689C107.562 31.7689 106.505 31.5514 105.65 31.1164C104.795 30.6664 104.142 29.9839 103.692 29.0689C103.257 28.1389 103.04 26.9764 103.04 25.5814C103.04 24.1564 103.257 22.9939 103.692 22.0939C104.142 21.1789 104.795 20.4964 105.65 20.0464C106.52 19.5964 107.577 19.3714 108.822 19.3714C109.632 19.3714 110.36 19.4689 111.005 19.6639C111.665 19.8589 112.235 20.1589 112.715 20.5639C113.195 20.9689 113.555 21.4714 113.795 22.0714C114.05 22.6564 114.177 23.3539 114.177 24.1639H111.05C111.05 23.6239 110.967 23.1814 110.802 22.8364C110.637 22.4914 110.382 22.2289 110.037 22.0489C109.707 21.8689 109.287 21.7789 108.777 21.7789C108.177 21.7789 107.69 21.9139 107.315 22.1839C106.94 22.4539 106.662 22.8514 106.482 23.3764C106.302 23.9014 106.212 24.5539 106.212 25.3339V25.8514C106.212 26.6164 106.302 27.2614 106.482 27.7864C106.677 28.3114 106.97 28.7089 107.36 28.9789C107.75 29.2339 108.26 29.3614 108.89 29.3614C109.4 29.3614 109.82 29.2714 110.15 29.0914C110.495 28.9114 110.757 28.6414 110.937 28.2814C111.117 27.9214 111.207 27.4864 111.207 26.9764H114.177C114.177 27.7414 114.05 28.4239 113.795 29.0239C113.555 29.6239 113.195 30.1264 112.715 30.5314C112.25 30.9364 111.687 31.2439 111.027 31.4539C110.367 31.6639 109.632 31.7689 108.822 31.7689Z" fill="#0F0F0F"/>
<path d="M115.623 31.4989V15.2314H118.75V20.9689H118.908C119.163 20.6539 119.463 20.3839 119.808 20.1589C120.168 19.9189 120.565 19.7314 121 19.5964C121.45 19.4614 121.938 19.3939 122.463 19.3939C123.243 19.3939 123.925 19.5364 124.51 19.8214C125.095 20.1064 125.545 20.5564 125.86 21.1714C126.19 21.7864 126.355 22.5889 126.355 23.5789V31.4989H123.228V24.0739C123.228 23.6989 123.183 23.3839 123.093 23.1289C123.003 22.8589 122.868 22.6414 122.688 22.4764C122.523 22.2964 122.313 22.1689 122.058 22.0939C121.803 22.0189 121.518 21.9814 121.203 21.9814C120.738 21.9814 120.318 22.0939 119.943 22.3189C119.568 22.5439 119.275 22.8514 119.065 23.2414C118.855 23.6314 118.75 24.0814 118.75 24.5914V31.4989H115.623Z" fill="#0F0F0F"/>
<path d="M133.635 31.7689C132.33 31.7689 131.235 31.5514 130.35 31.1164C129.465 30.6664 128.798 29.9839 128.348 29.0689C127.898 28.1539 127.673 26.9914 127.673 25.5814C127.673 24.1564 127.898 22.9939 128.348 22.0939C128.798 21.1789 129.458 20.5039 130.328 20.0689C131.213 19.6189 132.293 19.3939 133.568 19.3939C134.768 19.3939 135.78 19.6114 136.605 20.0464C137.43 20.4664 138.053 21.1264 138.473 22.0264C138.893 22.9114 139.103 24.0589 139.103 25.4689V26.2789H130.845C130.875 26.9689 130.98 27.5539 131.16 28.0339C131.355 28.5139 131.648 28.8739 132.038 29.1139C132.443 29.3389 132.975 29.4514 133.635 29.4514C133.995 29.4514 134.318 29.4064 134.603 29.3164C134.903 29.2264 135.158 29.0914 135.368 28.9114C135.578 28.7314 135.743 28.5064 135.863 28.2364C135.983 27.9664 136.043 27.6589 136.043 27.3139H139.103C139.103 28.0639 138.968 28.7164 138.698 29.2714C138.428 29.8264 138.053 30.2914 137.573 30.6664C137.093 31.0264 136.515 31.3039 135.84 31.4989C135.18 31.6789 134.445 31.7689 133.635 31.7689ZM130.89 24.2989H135.885C135.885 23.8489 135.825 23.4589 135.705 23.1289C135.6 22.7989 135.45 22.5289 135.255 22.3189C135.06 22.1089 134.82 21.9589 134.535 21.8689C134.265 21.7639 133.958 21.7114 133.613 21.7114C133.043 21.7114 132.563 21.8089 132.173 22.0039C131.798 22.1839 131.505 22.4689 131.295 22.8589C131.1 23.2339 130.965 23.7139 130.89 24.2989Z" fill="#0F0F0F"/>
<defs>
<clipPath id="clip0_355_172">
<rect width="33.3333" height="40" fill="white" transform="translate(0 4)"/>
</clipPath>
</defs>
</svg>
