<svg width="48" height="48" viewBox="0 0 48 48" fill="none" xmlns="http://www.w3.org/2000/svg">
<g clip-path="url(#clip0_355_480)">
<rect width="48" height="48" fill="#004EEB"/>
<rect width="48" height="48" fill="url(#paint0_linear_355_480)"/>
<g filter="url(#filter0_d_355_480)">
<path d="M33 25.5C33 29.6421 29.6421 33 25.5 33C21.3579 33 18 29.6421 18 25.5H12C12 32.9558 18.0442 39 25.5 39C32.9558 39 39 32.9558 39 25.5C39 18.0442 32.9558 12 25.5 12V18C29.6421 18 33 21.3579 33 25.5Z" fill="url(#paint1_linear_355_480)"/>
<path opacity="0.5" d="M16.5 9C16.5 13.1421 13.1421 16.5 9 16.5V22.5C16.4558 22.5 22.5 16.4558 22.5 9H16.5Z" fill="url(#paint2_linear_355_480)"/>
</g>
</g>
<defs>
<filter id="filter0_d_355_480" x="6" y="5.25" width="36" height="42" filterUnits="userSpaceOnUse" color-interpolation-filters="sRGB">
<feFlood flood-opacity="0" result="BackgroundImageFix"/>
<feColorMatrix in="SourceAlpha" type="matrix" values="0 0 0 0 0 0 0 0 0 0 0 0 0 0 0 0 0 0 127 0" result="hardAlpha"/>
<feMorphology radius="1.5" operator="erode" in="SourceAlpha" result="effect1_dropShadow_355_480"/>
<feOffset dy="2.25"/>
<feGaussianBlur stdDeviation="2.25"/>
<feComposite in2="hardAlpha" operator="out"/>
<feColorMatrix type="matrix" values="0 0 0 0 0.141176 0 0 0 0 0.141176 0 0 0 0 0.141176 0 0 0 0.1 0"/>
<feBlend mode="normal" in2="BackgroundImageFix" result="effect1_dropShadow_355_480"/>
<feBlend mode="normal" in="SourceGraphic" in2="effect1_dropShadow_355_480" result="shape"/>
</filter>
<linearGradient id="paint0_linear_355_480" x1="24" y1="5.96047e-07" x2="26" y2="48" gradientUnits="userSpaceOnUse">
<stop stop-color="white" stop-opacity="0"/>
<stop offset="1" stop-color="white" stop-opacity="0.12"/>
</linearGradient>
<linearGradient id="paint1_linear_355_480" x1="25.5" y1="12" x2="25.5" y2="39" gradientUnits="userSpaceOnUse">
<stop stop-color="white" stop-opacity="0.8"/>
<stop offset="1" stop-color="white" stop-opacity="0.5"/>
</linearGradient>
<linearGradient id="paint2_linear_355_480" x1="15.75" y1="9" x2="15.75" y2="22.5" gradientUnits="userSpaceOnUse">
<stop stop-color="white" stop-opacity="0.8"/>
<stop offset="1" stop-color="white" stop-opacity="0.5"/>
</linearGradient>
<clipPath id="clip0_355_480">
<rect width="48" height="48" fill="white"/>
</clipPath>
</defs>
</svg>
