<svg width="48" height="48" viewBox="0 0 48 48" fill="none" xmlns="http://www.w3.org/2000/svg">
<g clip-path="url(#clip0_355_522)">
<rect width="48" height="48" fill="#079455"/>
<rect width="48" height="48" fill="url(#paint0_linear_355_522)"/>
<g filter="url(#filter0_d_355_522)">
<path fill-rule="evenodd" clip-rule="evenodd" d="M23.9616 8.95898H35.8335V13.52H31.6368C32.3124 14.7598 32.6963 16.1815 32.6963 17.6929C32.6963 22.5164 28.786 26.4267 23.9624 26.4267C19.1388 26.4267 15.2285 22.5164 15.2285 17.6929C15.2285 12.8695 19.1384 8.95942 23.9616 8.95898ZM23.9624 21.8657C26.267 21.8657 28.1352 19.9975 28.1352 17.6929C28.1352 15.3883 26.267 13.52 23.9624 13.52H23.9616C21.6574 13.5204 19.7895 15.3885 19.7895 17.6929C19.7895 19.9975 21.6578 21.8657 23.9624 21.8657Z" fill="url(#paint1_linear_355_522)"/>
<path opacity="0.7" d="M23.9618 39.0414C22.3346 39.0414 20.86 38.737 19.5379 38.1281C18.2158 37.5445 17.1606 36.72 16.3725 35.6544C15.6097 34.5888 15.2284 33.371 15.2284 32.001C15.2284 30.9355 15.3809 30.0602 15.686 29.3752C15.9911 28.6901 16.4487 28.0305 17.0589 27.3962L20.8345 29.8318C20.5803 30.0602 20.3896 30.3266 20.2625 30.631C20.1353 30.9355 20.0718 31.316 20.0718 31.7727C20.0718 32.6099 20.415 33.2696 21.1015 33.7516C21.806 34.2538 22.7596 34.5075 23.9622 34.5126C25.1648 34.5075 26.1184 34.2538 26.823 33.7516C27.5094 33.2696 27.8527 32.6099 27.8527 31.7727C27.8527 31.316 27.7891 30.9355 27.662 30.631C27.5349 30.3266 27.3442 30.0602 27.0899 29.8318L30.8655 27.3962C31.4757 28.0305 31.9333 28.6901 32.2384 29.3752C32.5435 30.0602 32.6961 30.9355 32.6961 32.001C32.6961 33.371 32.3147 34.5888 31.552 35.6544C30.7638 36.72 29.7087 37.5445 28.3866 38.1281C27.0645 38.737 25.589 39.0414 23.9618 39.0414Z" fill="url(#paint2_linear_355_522)"/>
</g>
</g>
<defs>
<filter id="filter0_d_355_522" x="12.0617" y="4.20833" width="26.9385" height="44.3333" filterUnits="userSpaceOnUse" color-interpolation-filters="sRGB">
<feFlood flood-opacity="0" result="BackgroundImageFix"/>
<feColorMatrix in="SourceAlpha" type="matrix" values="0 0 0 0 0 0 0 0 0 0 0 0 0 0 0 0 0 0 127 0" result="hardAlpha"/>
<feMorphology radius="1.58333" operator="erode" in="SourceAlpha" result="effect1_dropShadow_355_522"/>
<feOffset dy="2.375"/>
<feGaussianBlur stdDeviation="2.375"/>
<feComposite in2="hardAlpha" operator="out"/>
<feColorMatrix type="matrix" values="0 0 0 0 0.141176 0 0 0 0 0.141176 0 0 0 0 0.141176 0 0 0 0.1 0"/>
<feBlend mode="normal" in2="BackgroundImageFix" result="effect1_dropShadow_355_522"/>
<feBlend mode="normal" in="SourceGraphic" in2="effect1_dropShadow_355_522" result="shape"/>
</filter>
<linearGradient id="paint0_linear_355_522" x1="24" y1="5.96047e-07" x2="26" y2="48" gradientUnits="userSpaceOnUse">
<stop stop-color="white" stop-opacity="0"/>
<stop offset="1" stop-color="white" stop-opacity="0.12"/>
</linearGradient>
<linearGradient id="paint1_linear_355_522" x1="25.531" y1="8.95898" x2="25.531" y2="26.4267" gradientUnits="userSpaceOnUse">
<stop stop-color="white" stop-opacity="0.8"/>
<stop offset="1" stop-color="white" stop-opacity="0.5"/>
</linearGradient>
<linearGradient id="paint2_linear_355_522" x1="23.9622" y1="27.3962" x2="23.9622" y2="39.0414" gradientUnits="userSpaceOnUse">
<stop stop-color="white" stop-opacity="0.8"/>
<stop offset="1" stop-color="white" stop-opacity="0.5"/>
</linearGradient>
<clipPath id="clip0_355_522">
<rect width="48" height="48" fill="white"/>
</clipPath>
</defs>
</svg>
