<svg width="203" height="48" viewBox="0 0 203 48" fill="none" xmlns="http://www.w3.org/2000/svg">
<path fill-rule="evenodd" clip-rule="evenodd" d="M24.5001 9C24.5 5.134 21.366 2 17.5 2H8.5C4.08172 2 0.5 5.58172 0.5 10V38C0.5 42.4183 4.08172 46 8.5 46H17.5C21.366 46 24.5 42.866 24.5 39C34.2067 39 42.3424 32.6029 44.5 24C42.3424 15.3971 34.2068 9 24.5001 9ZM24.5 18L24.5001 9C14.7933 9.00003 6.65765 15.3971 4.5 24C6.65765 32.6029 14.7933 39 24.5 39V30C27.8137 30 30.5 27.3137 30.5 24C30.5 20.6863 27.8137 18 24.5 18ZM24.5 18V30C21.1863 30 18.5 27.3137 18.5 24C18.5 20.6863 21.1863 18 24.5 18Z" fill="white"/>
<path d="M60.654 33.2702C57.99 33.2702 55.965 32.6852 54.579 31.5152C53.193 30.3272 52.5 28.7792 52.5 26.8712H56.982C57.018 27.8972 57.369 28.6532 58.035 29.1392C58.701 29.6072 59.61 29.8412 60.762 29.8412C63.03 29.8412 64.164 29.0582 64.164 27.4922C64.164 26.8442 63.957 26.3582 63.543 26.0342C63.129 25.7102 62.562 25.4672 61.842 25.3052C61.122 25.1252 60.294 24.9452 59.358 24.7652C57.36 24.3692 55.785 23.7392 54.633 22.8752C53.499 22.0112 52.932 20.7332 52.932 19.0412C52.932 17.7272 53.247 16.6292 53.877 15.7472C54.525 14.8652 55.425 14.1992 56.577 13.7492C57.747 13.2992 59.097 13.0742 60.627 13.0742C63.129 13.0742 65.046 13.5872 66.378 14.6132C67.728 15.6392 68.412 17.0882 68.43 18.9602H63.975C63.957 18.1502 63.66 17.5292 63.084 17.0972C62.508 16.6472 61.689 16.4222 60.627 16.4222C59.691 16.4222 58.953 16.6112 58.413 16.9892C57.891 17.3492 57.63 17.8532 57.63 18.5012C57.63 19.0772 57.801 19.5182 58.143 19.8242C58.503 20.1302 59.016 20.3642 59.682 20.5262C60.348 20.6702 61.149 20.8232 62.085 20.9852C63.363 21.2012 64.515 21.5252 65.541 21.9572C66.567 22.3712 67.377 22.9832 67.971 23.7932C68.565 24.6032 68.862 25.7102 68.862 27.1142C68.862 28.5002 68.52 29.6522 67.836 30.5702C67.152 31.4882 66.189 32.1722 64.947 32.6222C63.723 33.0542 62.292 33.2702 60.654 33.2702Z" fill="white"/>
<path d="M77.3548 33.2702C74.9968 33.2702 73.2418 32.5952 72.0898 31.2452C70.9558 29.8952 70.3888 28.0952 70.3888 25.8452V25.7642C70.3888 23.2262 71.0188 21.3362 72.2788 20.0942C73.5568 18.8522 75.2578 18.2312 77.3818 18.2312C79.4158 18.2312 81.0178 18.7442 82.1878 19.7702C83.3578 20.7962 83.9788 22.1642 84.0508 23.8742H80.0008C79.9288 23.1182 79.6588 22.5512 79.1908 22.1732C78.7228 21.7952 78.1198 21.6062 77.3818 21.6062C76.4998 21.6062 75.8068 21.8672 75.3028 22.3892C74.8168 22.9112 74.5738 23.6132 74.5738 24.4952V27.0872C74.5738 27.9692 74.8168 28.6622 75.3028 29.1662C75.7888 29.6702 76.4728 29.9222 77.3548 29.9222C78.1828 29.9222 78.8128 29.7062 79.2448 29.2742C79.6948 28.8422 79.9468 28.2932 80.0008 27.6272H84.0778C84.0598 28.7612 83.7628 29.7512 83.1868 30.5972C82.6288 31.4432 81.8458 32.1002 80.8378 32.5682C79.8298 33.0362 78.6688 33.2702 77.3548 33.2702Z" fill="white"/>
<path d="M86.2713 33.0002V21.7142C86.2713 20.7242 86.5683 19.9412 87.1623 19.3652C87.7563 18.7892 88.5303 18.5012 89.4843 18.5012H95.3973V21.8492H90.4293V33.0002H86.2713Z" fill="white"/>
<path d="M103.544 33.2702C101.942 33.2702 100.601 32.9642 99.5205 32.3522C98.4585 31.7222 97.6665 30.8492 97.1445 29.7332C96.6225 28.5992 96.3615 27.2852 96.3615 25.7912V25.5482C96.3615 23.9822 96.6495 22.6592 97.2255 21.5792C97.8015 20.4812 98.6025 19.6532 99.6285 19.0952C100.673 18.5192 101.87 18.2312 103.22 18.2312C104.696 18.2312 105.947 18.5102 106.973 19.0682C108.017 19.6262 108.809 20.4092 109.349 21.4172C109.889 22.4252 110.159 23.6042 110.159 24.9542V26.7902H100.574V27.5462C100.574 28.3202 100.835 28.9412 101.357 29.4092C101.897 29.8772 102.581 30.1112 103.409 30.1112C104.146 30.1112 104.75 29.9492 105.218 29.6252C105.704 29.3012 105.992 28.8692 106.082 28.3292H109.997C109.943 29.3192 109.637 30.1832 109.079 30.9212C108.521 31.6592 107.764 32.2352 106.811 32.6492C105.857 33.0632 104.768 33.2702 103.544 33.2702ZM100.574 24.0902V24.2252H106.082V24.0902C106.082 23.1182 105.83 22.4162 105.326 21.9842C104.821 21.5342 104.165 21.3092 103.354 21.3092C102.491 21.3092 101.807 21.5522 101.303 22.0382C100.817 22.5062 100.574 23.1902 100.574 24.0902Z" fill="white"/>
<path d="M118.666 33.2702C117.064 33.2702 115.723 32.9642 114.643 32.3522C113.581 31.7222 112.789 30.8492 112.267 29.7332C111.745 28.5992 111.484 27.2852 111.484 25.7912V25.5482C111.484 23.9822 111.772 22.6592 112.348 21.5792C112.924 20.4812 113.725 19.6532 114.751 19.0952C115.795 18.5192 116.992 18.2312 118.342 18.2312C119.818 18.2312 121.069 18.5102 122.095 19.0682C123.139 19.6262 123.931 20.4092 124.471 21.4172C125.011 22.4252 125.281 23.6042 125.281 24.9542V26.7902H115.696V27.5462C115.696 28.3202 115.957 28.9412 116.479 29.4092C117.019 29.8772 117.703 30.1112 118.531 30.1112C119.269 30.1112 119.872 29.9492 120.34 29.6252C120.826 29.3012 121.114 28.8692 121.204 28.3292H125.119C125.065 29.3192 124.759 30.1832 124.201 30.9212C123.643 31.6592 122.887 32.2352 121.933 32.6492C120.979 33.0632 119.89 33.2702 118.666 33.2702ZM115.696 24.0902V24.2252H121.204V24.0902C121.204 23.1182 120.952 22.4162 120.448 21.9842C119.944 21.5342 119.287 21.3092 118.477 21.3092C117.613 21.3092 116.929 21.5522 116.425 22.0382C115.939 22.5062 115.696 23.1902 115.696 24.0902Z" fill="white"/>
<path d="M127.551 33.0002V18.5012H131.412L131.709 20.8772H131.952C132.258 20.0852 132.789 19.4462 133.545 18.9602C134.301 18.4742 135.201 18.2312 136.245 18.2312C137.793 18.2312 139.017 18.7082 139.917 19.6622C140.817 20.5982 141.267 22.0832 141.267 24.1172V33.0002H137.136V24.6572C137.136 23.4872 136.902 22.6862 136.434 22.2542C135.966 21.8222 135.336 21.6062 134.544 21.6062C133.608 21.6062 132.897 21.9122 132.411 22.5242C131.943 23.1362 131.709 23.9462 131.709 24.9542V33.0002H127.551Z" fill="white"/>
<path d="M156.297 16.6652V13.3172H160.428V16.6652H156.297ZM156.297 21.8492H150.249V29.7602H153.651V33.0002H149.304C148.152 33.0002 147.324 32.7032 146.82 32.1092C146.334 31.5152 146.091 30.7412 146.091 29.7872V21.8492H142.959V18.5012H146.091V13.9652H150.249V18.5012H160.428V33.0002H156.297V21.8492Z" fill="white"/>
<path d="M163.701 33.0002V18.5012H167.589L167.859 20.7962H168.102C168.408 20.0042 168.939 19.3832 169.695 18.9332C170.451 18.4832 171.324 18.2582 172.314 18.2582C173.466 18.2582 174.429 18.5282 175.203 19.0682C175.977 19.6082 176.499 20.3372 176.769 21.2552H176.958C177.264 20.3012 177.822 19.5632 178.632 19.0412C179.442 18.5192 180.396 18.2582 181.494 18.2582C183.006 18.2582 184.203 18.7082 185.085 19.6082C185.985 20.4902 186.435 21.8942 186.435 23.8202V33.0002H182.277V24.5762C182.277 23.4962 182.061 22.7402 181.629 22.3082C181.197 21.8582 180.603 21.6332 179.847 21.6332C178.965 21.6332 178.29 21.9302 177.822 22.5242C177.372 23.1002 177.147 23.8832 177.147 24.8732V33.0002H172.989V24.5762C172.989 23.4962 172.773 22.7402 172.341 22.3082C171.927 21.8582 171.324 21.6332 170.532 21.6332C169.65 21.6332 168.984 21.9302 168.534 22.5242C168.084 23.1002 167.859 23.8832 167.859 24.8732V33.0002H163.701Z" fill="white"/>
<path d="M195.765 33.2702C194.163 33.2702 192.822 32.9642 191.742 32.3522C190.68 31.7222 189.888 30.8492 189.366 29.7332C188.844 28.5992 188.583 27.2852 188.583 25.7912V25.5482C188.583 23.9822 188.871 22.6592 189.447 21.5792C190.023 20.4812 190.824 19.6532 191.85 19.0952C192.894 18.5192 194.091 18.2312 195.441 18.2312C196.917 18.2312 198.168 18.5102 199.194 19.0682C200.238 19.6262 201.03 20.4092 201.57 21.4172C202.11 22.4252 202.38 23.6042 202.38 24.9542V26.7902H192.795V27.5462C192.795 28.3202 193.056 28.9412 193.578 29.4092C194.118 29.8772 194.802 30.1112 195.63 30.1112C196.368 30.1112 196.971 29.9492 197.439 29.6252C197.925 29.3012 198.213 28.8692 198.303 28.3292H202.218C202.164 29.3192 201.858 30.1832 201.3 30.9212C200.742 31.6592 199.986 32.2352 199.032 32.6492C198.078 33.0632 196.989 33.2702 195.765 33.2702ZM192.795 24.0902V24.2252H198.303V24.0902C198.303 23.1182 198.051 22.4162 197.547 21.9842C197.043 21.5342 196.386 21.3092 195.576 21.3092C194.712 21.3092 194.028 21.5522 193.524 22.0382C193.038 22.5062 192.795 23.1902 192.795 24.0902Z" fill="white"/>
</svg>
