<svg width="172" height="48" viewBox="0 0 172 48" fill="none" xmlns="http://www.w3.org/2000/svg">
<path d="M12.8463 5.5224C15.2728 4.51737 17.8736 4 20.5 4V14C19.1867 14 17.8864 14.2586 16.6731 14.7613C15.4599 15.2638 14.3575 16.0003 13.4289 16.9289C12.5003 17.8575 11.7638 18.9599 11.2613 20.1731C10.7586 21.3864 10.5 22.6867 10.5 24H0.5C0.5 21.3736 1.01737 18.7728 2.0224 16.3463C3.02754 13.9198 4.50069 11.7151 6.35783 9.85783C8.21509 8.00069 10.4198 6.52754 12.8463 5.5224Z" fill="white"/>
<path d="M0.5 24C0.5 26.6264 1.01737 29.2272 2.0224 31.6537C3.02754 34.0802 4.50069 36.2849 6.35783 38.1422C8.21509 39.9993 10.4198 41.4725 12.8463 42.4776C15.2728 43.4826 17.8736 44 20.5 44C23.1264 44 25.7272 43.4826 28.1537 42.4776C30.5802 41.4725 32.7849 39.9993 34.6422 38.1422C36.4993 36.2849 37.9725 34.0802 38.9776 31.6537C39.9826 29.2272 40.5 26.6264 40.5 24H30.5C30.5 25.3133 30.2414 26.6136 29.7387 27.8269C29.2362 29.0401 28.4997 30.1425 27.5711 31.0711C26.6425 31.9997 25.5401 32.7362 24.3269 33.2387C23.1136 33.7414 21.8133 34 20.5 34C19.1867 34 17.8864 33.7414 16.6731 33.2387C15.4599 32.7362 14.3575 31.9997 13.4289 31.0711C12.5003 30.1425 11.7638 29.0401 11.2613 27.8269C10.7586 26.6136 10.5 25.3133 10.5 24H0.5Z" fill="white"/>
<path d="M20.5004 17.6367C16.9858 17.6367 14.1367 20.4858 14.1367 24.0004H26.864C26.864 20.4858 24.0149 17.6367 20.5004 17.6367Z" fill="white"/>
<path d="M20.5004 30.3633C16.9858 30.3633 14.1367 27.5142 14.1367 23.9996H26.864C26.864 27.5142 24.0149 30.3633 20.5004 30.3633Z" fill="white"/>
<path d="M56.3857 32.5143C54.9817 31.9203 53.9017 31.0293 53.1457 29.8683C52.3897 28.7343 52.0117 27.3573 52.0117 25.7643H56.7367C56.7637 26.9523 57.1687 27.8973 57.9787 28.5453C58.7617 29.2203 59.8687 29.5443 61.2727 29.5443C62.6227 29.5443 63.7027 29.3013 64.4587 28.7883C65.2147 28.2753 65.5927 27.5733 65.5927 26.6823C65.5927 26.0613 65.3767 25.5753 64.9447 25.2243C64.5127 24.9003 63.9997 24.6573 63.3517 24.4953C62.7037 24.3603 61.8127 24.1983 60.6247 24.0363C58.9507 23.8203 57.5737 23.5773 56.5207 23.2533C55.4407 22.9563 54.5227 22.3893 53.7667 21.5253C53.0107 20.6613 52.6327 19.4463 52.6327 17.8263C52.6327 16.5033 52.9567 15.3423 53.6587 14.3433C54.3337 13.3443 55.3057 12.5883 56.5747 12.0483C57.8167 11.5083 59.3017 11.2383 61.0297 11.2383C62.7037 11.2383 64.2157 11.5353 65.5387 12.1023C66.8347 12.6963 67.8607 13.5063 68.6167 14.5593C69.3457 15.6123 69.7237 16.8543 69.7237 18.2583H65.0797C64.9717 17.2863 64.5667 16.5033 63.8647 15.9633C63.1627 15.4233 62.1907 15.1263 60.9487 15.1263C59.6527 15.1263 58.6807 15.3693 58.0057 15.8283C57.3037 16.2873 56.9797 16.9353 56.9797 17.7723C56.9797 18.4203 57.1957 18.9333 57.6277 19.2573C58.0597 19.6083 58.5997 19.8513 59.2477 19.9863C59.8957 20.1483 60.7867 20.2833 61.9747 20.4183C63.6487 20.6343 65.0257 20.9043 66.0787 21.2013C67.1317 21.4983 68.0497 22.0653 68.8057 22.9293C69.5617 23.7933 69.9667 25.0083 69.9667 26.6283C69.9667 27.9783 69.6157 29.1393 68.9137 30.1653C68.2117 31.1913 67.1857 32.0013 65.8627 32.5683C64.5397 33.1623 62.9737 33.4323 61.1647 33.4323C59.3557 33.4323 57.7627 33.1353 56.3857 32.5143Z" fill="white"/>
<path d="M74.917 32.4873C73.783 31.8393 72.919 30.9483 72.298 29.8143C71.677 28.6803 71.38 27.4113 71.38 25.9533C71.38 24.5223 71.677 23.2533 72.298 22.1193C72.919 20.9853 73.783 20.1213 74.917 19.4733C76.024 18.8523 77.293 18.5283 78.724 18.5283C79.966 18.5283 81.073 18.8523 82.072 19.4463C83.071 20.0403 83.854 20.9043 84.448 22.0113C85.015 23.1453 85.312 24.4143 85.312 25.8723V27.1683H75.457C75.538 28.1133 75.862 28.8423 76.402 29.3823C76.942 29.9223 77.725 30.1653 78.751 30.1653C79.426 30.1653 79.993 30.0033 80.425 29.6793C80.857 29.3553 81.127 28.9503 81.235 28.4373H85.231C85.015 29.9493 84.286 31.1643 83.098 32.0823C81.91 33.0003 80.452 33.4323 78.724 33.4323C77.293 33.4323 76.024 33.1353 74.917 32.4873ZM81.289 24.7113C81.235 23.9013 80.992 23.2533 80.506 22.7403C80.02 22.2543 79.372 21.9843 78.562 21.9843C77.644 21.9843 76.942 22.2273 76.429 22.7133C75.916 23.1993 75.592 23.8743 75.484 24.7113H81.289Z" fill="white"/>
<path d="M89.0758 37.6443C87.8878 36.8343 87.2398 35.6193 87.1048 33.9993H91.1278C91.1818 34.6203 91.5058 35.0793 92.0458 35.3763C92.5858 35.6733 93.2878 35.8083 94.1788 35.8083C95.2588 35.8083 96.0688 35.5113 96.6088 34.8903C97.1488 34.2963 97.3918 33.3513 97.3918 32.0553V31.0563C96.3928 32.4063 94.8268 33.0813 92.6938 33.0813C91.4788 33.0813 90.4258 32.8113 89.5078 32.2173C88.5898 31.6503 87.8878 30.8403 87.4018 29.7603C86.8888 28.6803 86.6458 27.4383 86.6458 26.0073C86.6458 24.5493 86.8888 23.2533 87.4018 22.1193C87.8878 20.9853 88.6168 20.1213 89.5348 19.4733C90.4528 18.8523 91.5058 18.5283 92.6938 18.5283C94.8268 18.5283 96.3928 19.2843 97.3918 20.7423V19.2002H101.415V32.0553C101.415 36.5913 98.9308 38.8323 93.9898 38.8323C91.8838 38.8323 90.2368 38.4543 89.0758 37.6443ZM96.4738 28.7073C97.0948 27.9783 97.4188 27.0333 97.4188 25.8453C97.4188 24.6843 97.0948 23.7123 96.4738 22.9563C95.8258 22.2003 95.0158 21.8223 94.0438 21.8223C93.0448 21.8223 92.2348 22.2003 91.5868 22.9563C90.9388 23.7123 90.6418 24.6843 90.6418 25.8453C90.6418 27.0063 90.9388 27.9513 91.5868 28.6803C92.2078 29.4363 93.0178 29.7873 94.0438 29.7873C95.0158 29.7873 95.8258 29.4363 96.4738 28.7073Z" fill="white"/>
<path d="M103.603 19.2002H107.599V20.9853C108.085 20.2293 108.706 19.6083 109.516 19.1763C110.326 18.7443 111.271 18.5283 112.351 18.5283C114.565 18.5283 116.077 19.4193 116.86 21.2013C118.129 19.4193 119.938 18.5283 122.314 18.5283C125.797 18.5283 127.552 20.7153 127.552 25.0623V33.0003H123.475V25.2783C123.475 24.2523 123.232 23.4693 122.746 22.8753C122.26 22.2813 121.585 21.9843 120.721 21.9843C119.749 21.9843 118.966 22.3353 118.399 23.0373C117.832 23.7393 117.562 24.6573 117.562 25.8183V33.0003H113.512V25.2783C113.512 24.2523 113.269 23.4693 112.783 22.8753C112.297 22.2813 111.622 21.9843 110.758 21.9843C109.786 21.9843 109.003 22.3353 108.436 23.0373C107.869 23.7393 107.599 24.6573 107.599 25.8183V33.0003H103.603V19.2002Z" fill="white"/>
<path d="M132.566 32.4873C131.432 31.8393 130.568 30.9483 129.947 29.8143C129.326 28.6803 129.029 27.4113 129.029 25.9533C129.029 24.5223 129.326 23.2533 129.947 22.1193C130.568 20.9853 131.432 20.1213 132.566 19.4733C133.673 18.8523 134.942 18.5283 136.373 18.5283C137.615 18.5283 138.722 18.8523 139.721 19.4463C140.72 20.0403 141.503 20.9043 142.097 22.0113C142.664 23.1453 142.961 24.4143 142.961 25.8723V27.1683H133.106C133.187 28.1133 133.511 28.8423 134.051 29.3823C134.591 29.9223 135.374 30.1653 136.4 30.1653C137.075 30.1653 137.642 30.0033 138.074 29.6793C138.506 29.3553 138.776 28.9503 138.884 28.4373H142.88C142.664 29.9493 141.935 31.1643 140.747 32.0823C139.559 33.0003 138.101 33.4323 136.373 33.4323C134.942 33.4323 133.673 33.1353 132.566 32.4873ZM138.938 24.7113C138.884 23.9013 138.641 23.2533 138.155 22.7403C137.669 22.2543 137.021 21.9843 136.211 21.9843C135.293 21.9843 134.591 22.2273 134.078 22.7133C133.565 23.1993 133.241 23.8743 133.133 24.7113H138.938Z" fill="white"/>
<path d="M144.646 19.2002H148.642V20.9853C149.128 20.2293 149.749 19.6083 150.559 19.1763C151.369 18.7443 152.314 18.5283 153.394 18.5283C156.85 18.5283 158.605 20.7153 158.605 25.0623V33.0003H154.555V25.2783C154.555 24.2523 154.312 23.4693 153.826 22.8753C153.34 22.2813 152.665 21.9843 151.801 21.9843C150.829 21.9843 150.046 22.3353 149.479 23.0373C148.912 23.7393 148.642 24.6573 148.642 25.8183V33.0003H144.646V19.2002Z" fill="white"/>
<path d="M166.565 33.1083C165.485 33.1083 164.648 33.0003 164.054 32.7843C163.433 32.5683 162.974 32.1903 162.704 31.6233C162.407 31.0563 162.272 30.2463 162.299 29.2203V22.6053H159.302V18.9603H162.299V15.1803H166.295V18.9603H169.967V22.6053H166.295V27.1683C166.295 27.8703 166.322 28.3563 166.376 28.6533C166.43 28.9773 166.592 29.1933 166.808 29.3283C167.024 29.4633 167.375 29.5173 167.888 29.5173C168.266 29.5173 169.349 29.4903 169.97 29.4363V32.9733C168.755 33.0813 167.24 33.1083 166.565 33.1083Z" fill="white"/>
</svg>
